<svg id="visual" viewBox="0 0 960 540" width="960" height="540" xmlns="http://www.w3.org/2000/svg" xmlns:xlink="http://www.w3.org/1999/xlink" version="1.1"><path d="M0 380L22.8 382.5C45.7 385 91.3 390 137 389.3C182.7 388.7 228.3 382.3 274 374.7C319.7 367 365.3 358 411.2 348.8C457 339.7 503 330.3 548.8 327.7C594.7 325 640.3 329 686 338.8C731.7 348.7 777.3 364.3 823 368C868.7 371.7 914.3 363.3 937.2 359.2L960 355L960 541L937.2 541C914.3 541 868.7 541 823 541C777.3 541 731.7 541 686 541C640.3 541 594.7 541 548.8 541C503 541 457 541 411.2 541C365.3 541 319.7 541 274 541C228.3 541 182.7 541 137 541C91.3 541 45.7 541 22.8 541L0 541Z" fill="#fa7268"></path><path d="M0 383L22.8 379.8C45.7 376.7 91.3 370.3 137 368.5C182.7 366.7 228.3 369.3 274 377.8C319.7 386.3 365.3 400.7 411.2 408.8C457 417 503 419 548.8 415C594.7 411 640.3 401 686 395.7C731.7 390.3 777.3 389.7 823 395C868.7 400.3 914.3 411.7 937.2 417.3L960 423L960 541L937.2 541C914.3 541 868.7 541 823 541C777.3 541 731.7 541 686 541C640.3 541 594.7 541 548.8 541C503 541 457 541 411.2 541C365.3 541 319.7 541 274 541C228.3 541 182.7 541 137 541C91.3 541 45.7 541 22.8 541L0 541Z" fill="#bd5273"></path><path d="M0 431L22.8 432.8C45.7 434.7 91.3 438.3 137 435.8C182.7 433.3 228.3 424.7 274 424.3C319.7 424 365.3 432 411.2 432C457 432 503 424 548.8 425.5C594.7 427 640.3 438 686 437C731.7 436 777.3 423 823 422C868.7 421 914.3 432 937.2 437.5L960 443L960 541L937.2 541C914.3 541 868.7 541 823 541C777.3 541 731.7 541 686 541C640.3 541 594.7 541 548.8 541C503 541 457 541 411.2 541C365.3 541 319.7 541 274 541C228.3 541 182.7 541 137 541C91.3 541 45.7 541 22.8 541L0 541Z" fill="#763f67"></path><path d="M0 451L22.8 454.3C45.7 457.7 91.3 464.3 137 465.8C182.7 467.3 228.3 463.7 274 463.3C319.7 463 365.3 466 411.2 464.8C457 463.7 503 458.3 548.8 461.3C594.7 464.3 640.3 475.7 686 476.5C731.7 477.3 777.3 467.7 823 467.5C868.7 467.3 914.3 476.7 937.2 481.3L960 486L960 541L937.2 541C914.3 541 868.7 541 823 541C777.3 541 731.7 541 686 541C640.3 541 594.7 541 548.8 541C503 541 457 541 411.2 541C365.3 541 319.7 541 274 541C228.3 541 182.7 541 137 541C91.3 541 45.7 541 22.8 541L0 541Z" fill="#372b46"></path><path d="M0 483L22.8 485.8C45.7 488.7 91.3 494.3 137 499.2C182.7 504 228.3 508 274 507.7C319.7 507.3 365.3 502.7 411.2 497.5C457 492.3 503 486.7 548.8 482.7C594.7 478.7 640.3 476.3 686 475.2C731.7 474 777.3 474 823 476.5C868.7 479 914.3 484 937.2 486.5L960 489L960 541L937.2 541C914.3 541 868.7 541 823 541C777.3 541 731.7 541 686 541C640.3 541 594.7 541 548.8 541C503 541 457 541 411.2 541C365.3 541 319.7 541 274 541C228.3 541 182.7 541 137 541C91.3 541 45.7 541 22.8 541L0 541Z" fill="#0f1119"></path></svg>