<svg id="visual" viewBox="0 0 960 540" width="960" height="540" xmlns="http://www.w3.org/2000/svg" xmlns:xlink="http://www.w3.org/1999/xlink" version="1.1"><path d="M0 400L12.3 404.5C24.7 409 49.3 418 74 423.5C98.7 429 123.3 431 148 426.2C172.7 421.3 197.3 409.7 221.8 412.8C246.3 416 270.7 434 295.2 438.8C319.7 443.7 344.3 435.3 369 428.8C393.7 422.3 418.3 417.7 443 421.5C467.7 425.3 492.3 437.7 517 437.5C541.7 437.3 566.3 424.7 591 415.7C615.7 406.7 640.3 401.3 664.8 403.3C689.3 405.3 713.7 414.7 738.2 414.2C762.7 413.7 787.3 403.3 812 400.2C836.7 397 861.3 401 886 407.3C910.7 413.7 935.3 422.3 947.7 426.7L960 431L960 541L947.7 541C935.3 541 910.7 541 886 541C861.3 541 836.7 541 812 541C787.3 541 762.7 541 738.2 541C713.7 541 689.3 541 664.8 541C640.3 541 615.7 541 591 541C566.3 541 541.7 541 517 541C492.3 541 467.7 541 443 541C418.3 541 393.7 541 369 541C344.3 541 319.7 541 295.2 541C270.7 541 246.3 541 221.8 541C197.3 541 172.7 541 148 541C123.3 541 98.7 541 74 541C49.3 541 24.7 541 12.3 541L0 541Z" fill="#ade6ff"></path><path d="M0 465L12.3 464.8C24.7 464.7 49.3 464.3 74 464.2C98.7 464 123.3 464 148 455.3C172.7 446.7 197.3 429.3 221.8 423.3C246.3 417.3 270.7 422.7 295.2 429.5C319.7 436.3 344.3 444.7 369 446.8C393.7 449 418.3 445 443 438.3C467.7 431.7 492.3 422.3 517 426.2C541.7 430 566.3 447 591 447C615.7 447 640.3 430 664.8 425.5C689.3 421 713.7 429 738.2 433.2C762.7 437.3 787.3 437.7 812 437.3C836.7 437 861.3 436 886 434.7C910.7 433.3 935.3 431.7 947.7 430.8L960 430L960 541L947.7 541C935.3 541 910.7 541 886 541C861.3 541 836.7 541 812 541C787.3 541 762.7 541 738.2 541C713.7 541 689.3 541 664.8 541C640.3 541 615.7 541 591 541C566.3 541 541.7 541 517 541C492.3 541 467.7 541 443 541C418.3 541 393.7 541 369 541C344.3 541 319.7 541 295.2 541C270.7 541 246.3 541 221.8 541C197.3 541 172.7 541 148 541C123.3 541 98.7 541 74 541C49.3 541 24.7 541 12.3 541L0 541Z" fill="#94c1db"></path><path d="M0 473L12.3 468.7C24.7 464.3 49.3 455.7 74 451.5C98.7 447.3 123.3 447.7 148 452.8C172.7 458 197.3 468 221.8 468.2C246.3 468.3 270.7 458.7 295.2 453.8C319.7 449 344.3 449 369 447.5C393.7 446 418.3 443 443 441.5C467.7 440 492.3 440 517 443.2C541.7 446.3 566.3 452.7 591 452.5C615.7 452.3 640.3 445.7 664.8 446C689.3 446.3 713.7 453.7 738.2 453.5C762.7 453.3 787.3 445.7 812 443C836.7 440.3 861.3 442.7 886 447.2C910.7 451.7 935.3 458.3 947.7 461.7L960 465L960 541L947.7 541C935.3 541 910.7 541 886 541C861.3 541 836.7 541 812 541C787.3 541 762.7 541 738.2 541C713.7 541 689.3 541 664.8 541C640.3 541 615.7 541 591 541C566.3 541 541.7 541 517 541C492.3 541 467.7 541 443 541C418.3 541 393.7 541 369 541C344.3 541 319.7 541 295.2 541C270.7 541 246.3 541 221.8 541C197.3 541 172.7 541 148 541C123.3 541 98.7 541 74 541C49.3 541 24.7 541 12.3 541L0 541Z" fill="#7c9eb7"></path><path d="M0 472L12.3 470.7C24.7 469.3 49.3 466.7 74 469.8C98.7 473 123.3 482 148 484.2C172.7 486.3 197.3 481.7 221.8 475.3C246.3 469 270.7 461 295.2 458C319.7 455 344.3 457 369 463C393.7 469 418.3 479 443 481.8C467.7 484.7 492.3 480.3 517 478C541.7 475.7 566.3 475.3 591 472.2C615.7 469 640.3 463 664.8 464.8C689.3 466.7 713.7 476.3 738.2 477.8C762.7 479.3 787.3 472.7 812 470.7C836.7 468.7 861.3 471.3 886 470.8C910.7 470.3 935.3 466.7 947.7 464.8L960 463L960 541L947.7 541C935.3 541 910.7 541 886 541C861.3 541 836.7 541 812 541C787.3 541 762.7 541 738.2 541C713.7 541 689.3 541 664.8 541C640.3 541 615.7 541 591 541C566.3 541 541.7 541 517 541C492.3 541 467.7 541 443 541C418.3 541 393.7 541 369 541C344.3 541 319.7 541 295.2 541C270.7 541 246.3 541 221.8 541C197.3 541 172.7 541 148 541C123.3 541 98.7 541 74 541C49.3 541 24.7 541 12.3 541L0 541Z" fill="#647c93"></path><path d="M0 476L12.3 478.5C24.7 481 49.3 486 74 489.7C98.7 493.3 123.3 495.7 148 491.7C172.7 487.7 197.3 477.3 221.8 476.5C246.3 475.7 270.7 484.3 295.2 486C319.7 487.7 344.3 482.3 369 481C393.7 479.7 418.3 482.3 443 484.5C467.7 486.7 492.3 488.3 517 491.3C541.7 494.3 566.3 498.7 591 495C615.7 491.3 640.3 479.7 664.8 479.7C689.3 479.7 713.7 491.3 738.2 495.2C762.7 499 787.3 495 812 490.5C836.7 486 861.3 481 886 479.5C910.7 478 935.3 480 947.7 481L960 482L960 541L947.7 541C935.3 541 910.7 541 886 541C861.3 541 836.7 541 812 541C787.3 541 762.7 541 738.2 541C713.7 541 689.3 541 664.8 541C640.3 541 615.7 541 591 541C566.3 541 541.7 541 517 541C492.3 541 467.7 541 443 541C418.3 541 393.7 541 369 541C344.3 541 319.7 541 295.2 541C270.7 541 246.3 541 221.8 541C197.3 541 172.7 541 148 541C123.3 541 98.7 541 74 541C49.3 541 24.7 541 12.3 541L0 541Z" fill="#4c5c70"></path><path d="M0 508L12.3 505.2C24.7 502.3 49.3 496.7 74 494.2C98.7 491.7 123.3 492.3 148 496.2C172.7 500 197.3 507 221.8 508.7C246.3 510.3 270.7 506.7 295.2 505.2C319.7 503.7 344.3 504.3 369 505.8C393.7 507.3 418.3 509.7 443 507.8C467.7 506 492.3 500 517 499.8C541.7 499.7 566.3 505.3 591 506.5C615.7 507.7 640.3 504.3 664.8 502.7C689.3 501 713.7 501 738.2 500.2C762.7 499.3 787.3 497.7 812 495.3C836.7 493 861.3 490 886 491C910.7 492 935.3 497 947.7 499.5L960 502L960 541L947.7 541C935.3 541 910.7 541 886 541C861.3 541 836.7 541 812 541C787.3 541 762.7 541 738.2 541C713.7 541 689.3 541 664.8 541C640.3 541 615.7 541 591 541C566.3 541 541.7 541 517 541C492.3 541 467.7 541 443 541C418.3 541 393.7 541 369 541C344.3 541 319.7 541 295.2 541C270.7 541 246.3 541 221.8 541C197.3 541 172.7 541 148 541C123.3 541 98.7 541 74 541C49.3 541 24.7 541 12.3 541L0 541Z" fill="#353e4e"></path><path d="M0 527L12.3 527.3C24.7 527.7 49.3 528.3 74 528.8C98.7 529.3 123.3 529.7 148 526.3C172.7 523 197.3 516 221.8 515.3C246.3 514.7 270.7 520.3 295.2 521.7C319.7 523 344.3 520 369 518C393.7 516 418.3 515 443 513C467.7 511 492.3 508 517 507.5C541.7 507 566.3 509 591 510.8C615.7 512.7 640.3 514.3 664.8 516.3C689.3 518.3 713.7 520.7 738.2 523.3C762.7 526 787.3 529 812 528.8C836.7 528.7 861.3 525.3 886 524C910.7 522.7 935.3 523.3 947.7 523.7L960 524L960 541L947.7 541C935.3 541 910.7 541 886 541C861.3 541 836.7 541 812 541C787.3 541 762.7 541 738.2 541C713.7 541 689.3 541 664.8 541C640.3 541 615.7 541 591 541C566.3 541 541.7 541 517 541C492.3 541 467.7 541 443 541C418.3 541 393.7 541 369 541C344.3 541 319.7 541 295.2 541C270.7 541 246.3 541 221.8 541C197.3 541 172.7 541 148 541C123.3 541 98.7 541 74 541C49.3 541 24.7 541 12.3 541L0 541Z" fill="#1e222f"></path></svg>