<svg id="visual" viewBox="0 0 960 540" width="960" height="540" xmlns="http://www.w3.org/2000/svg" xmlns:xlink="http://www.w3.org/1999/xlink" version="1.1"><path d="M0 104L9.3 110.2C18.7 116.3 37.3 128.7 56.2 115.2C75 101.7 94 62.3 112.8 48.8C131.7 35.3 150.3 47.7 169.2 49.3C188 51 207 42 225.8 58.3C244.7 74.7 263.3 116.3 282.2 139.8C301 163.3 320 168.7 338.8 155.2C357.7 141.7 376.3 109.3 395.2 118.3C414 127.3 433 177.7 451.8 181.2C470.7 184.7 489.3 141.3 508.2 129.7C527 118 546 138 564.8 133.5C583.7 129 602.3 100 621.2 100.8C640 101.7 659 132.3 677.8 134.2C696.7 136 715.3 109 734.2 97.3C753 85.7 772 89.3 790.8 86.7C809.7 84 828.3 75 847.2 102C866 129 885 192 903.8 190.2C922.7 188.3 941.3 121.7 950.7 88.3L960 55L960 0L950.7 0C941.3 0 922.7 0 903.8 0C885 0 866 0 847.2 0C828.3 0 809.7 0 790.8 0C772 0 753 0 734.2 0C715.3 0 696.7 0 677.8 0C659 0 640 0 621.2 0C602.3 0 583.7 0 564.8 0C546 0 527 0 508.2 0C489.3 0 470.7 0 451.8 0C433 0 414 0 395.2 0C376.3 0 357.7 0 338.8 0C320 0 301 0 282.2 0C263.3 0 244.7 0 225.8 0C207 0 188 0 169.2 0C150.3 0 131.7 0 112.8 0C94 0 75 0 56.2 0C37.3 0 18.7 0 9.3 0L0 0Z" fill="#bfe1ef"></path><path d="M0 125L9.3 134C18.7 143 37.3 161 56.2 145.7C75 130.3 94 81.7 112.8 63.7C131.7 45.7 150.3 58.3 169.2 68.3C188 78.3 207 85.7 225.8 110C244.7 134.3 263.3 175.7 282.2 199C301 222.3 320 227.7 338.8 208.8C357.7 190 376.3 147 395.2 148.8C414 150.7 433 197.3 451.8 203.5C470.7 209.7 489.3 175.3 508.2 164.5C527 153.7 546 166.3 564.8 164.7C583.7 163 602.3 147 621.2 155.2C640 163.3 659 195.7 677.8 198.3C696.7 201 715.3 174 734.2 162.3C753 150.7 772 154.3 790.8 141.7C809.7 129 828.3 100 847.2 125.2C866 150.3 885 229.7 903.8 228.8C922.7 228 941.3 147 950.7 106.5L960 66L960 53L950.7 86.3C941.3 119.7 922.7 186.3 903.8 188.2C885 190 866 127 847.2 100C828.3 73 809.7 82 790.8 84.7C772 87.3 753 83.7 734.2 95.3C715.3 107 696.7 134 677.8 132.2C659 130.3 640 99.7 621.2 98.8C602.3 98 583.7 127 564.8 131.5C546 136 527 116 508.2 127.7C489.3 139.3 470.7 182.7 451.8 179.2C433 175.7 414 125.3 395.2 116.3C376.3 107.3 357.7 139.7 338.8 153.2C320 166.7 301 161.3 282.2 137.8C263.3 114.3 244.7 72.7 225.8 56.3C207 40 188 49 169.2 47.3C150.3 45.7 131.7 33.3 112.8 46.8C94 60.3 75 99.7 56.2 113.2C37.3 126.7 18.7 114.3 9.3 108.2L0 102Z" fill="#abd9ea"></path><path d="M0 201L9.3 203.7C18.7 206.3 37.3 211.7 56.2 196.3C75 181 94 145 112.8 127.8C131.7 110.7 150.3 112.3 169.2 120.5C188 128.7 207 143.3 225.8 167.7C244.7 192 263.3 226 282.2 244.8C301 263.7 320 267.3 338.8 249.3C357.7 231.3 376.3 191.7 395.2 196.2C414 200.7 433 249.3 451.8 253C470.7 256.7 489.3 215.3 508.2 201C527 186.7 546 199.3 564.8 198.3C583.7 197.3 602.3 182.7 621.2 195.2C640 207.7 659 247.3 677.8 253.7C696.7 260 715.3 233 734.2 220.5C753 208 772 210 790.8 199.2C809.7 188.3 828.3 164.7 847.2 190.7C866 216.7 885 292.3 903.8 287.8C922.7 283.3 941.3 198.7 950.7 156.3L960 114L960 64L950.7 104.5C941.3 145 922.7 226 903.8 226.8C885 227.7 866 148.3 847.2 123.2C828.3 98 809.7 127 790.8 139.7C772 152.3 753 148.7 734.2 160.3C715.3 172 696.7 199 677.8 196.3C659 193.7 640 161.3 621.2 153.2C602.3 145 583.7 161 564.8 162.7C546 164.3 527 151.7 508.2 162.5C489.3 173.3 470.7 207.7 451.8 201.5C433 195.3 414 148.7 395.2 146.8C376.3 145 357.7 188 338.8 206.8C320 225.7 301 220.3 282.2 197C263.3 173.7 244.7 132.3 225.8 108C207 83.7 188 76.3 169.2 66.3C150.3 56.3 131.7 43.7 112.8 61.7C94 79.7 75 128.3 56.2 143.7C37.3 159 18.7 141 9.3 132L0 123Z" fill="#95cddf"></path><path d="M0 212L9.3 217.3C18.7 222.7 37.3 233.3 56.2 227C75 220.7 94 197.3 112.8 180.2C131.7 163 150.3 152 169.2 156.5C188 161 207 181 225.8 206.3C244.7 231.7 263.3 262.3 282.2 287.5C301 312.7 320 332.3 338.8 321.5C357.7 310.7 376.3 269.3 395.2 272C414 274.7 433 321.3 451.8 324.8C470.7 328.3 489.3 288.7 508.2 268C527 247.3 546 245.7 564.8 235C583.7 224.3 602.3 204.7 621.2 221.8C640 239 659 293 677.8 307.3C696.7 321.7 715.3 296.3 734.2 286.3C753 276.3 772 281.7 790.8 263.7C809.7 245.7 828.3 204.3 847.2 228.7C866 253 885 343 903.8 347.5C922.7 352 941.3 271 950.7 230.5L960 190L960 112L950.7 154.3C941.3 196.7 922.7 281.3 903.8 285.8C885 290.3 866 214.7 847.2 188.7C828.3 162.7 809.7 186.3 790.8 197.2C772 208 753 206 734.2 218.5C715.3 231 696.7 258 677.8 251.7C659 245.3 640 205.7 621.2 193.2C602.3 180.7 583.7 195.3 564.8 196.3C546 197.3 527 184.7 508.2 199C489.3 213.3 470.7 254.7 451.8 251C433 247.3 414 198.7 395.2 194.2C376.3 189.7 357.7 229.3 338.8 247.3C320 265.3 301 261.7 282.2 242.8C263.3 224 244.7 190 225.8 165.7C207 141.3 188 126.7 169.2 118.5C150.3 110.3 131.7 108.7 112.8 125.8C94 143 75 179 56.2 194.3C37.3 209.7 18.7 204.3 9.3 201.7L0 199Z" fill="#7ebbcf"></path><path d="M0 233L9.3 250.2C18.7 267.3 37.3 301.7 56.2 301.7C75 301.7 94 267.3 112.8 243C131.7 218.7 150.3 204.3 169.2 200.8C188 197.3 207 204.7 225.8 231.7C244.7 258.7 263.3 305.3 282.2 335.8C301 366.3 320 380.7 338.8 364.5C357.7 348.3 376.3 301.7 395.2 300.8C414 300 433 345 451.8 352.2C470.7 359.3 489.3 328.7 508.2 317.8C527 307 546 316 564.8 298.8C583.7 281.7 602.3 238.3 621.2 250C640 261.7 659 328.3 677.8 354.5C696.7 380.7 715.3 366.3 734.2 356.5C753 346.7 772 341.3 790.8 327.8C809.7 314.3 828.3 292.7 847.2 310.7C866 328.7 885 386.3 903.8 379.2C922.7 372 941.3 300 950.7 264L960 228L960 188L950.7 228.5C941.3 269 922.7 350 903.8 345.5C885 341 866 251 847.2 226.7C828.3 202.3 809.7 243.7 790.8 261.7C772 279.7 753 274.3 734.2 284.3C715.3 294.3 696.7 319.7 677.8 305.3C659 291 640 237 621.2 219.8C602.3 202.7 583.7 222.3 564.8 233C546 243.7 527 245.3 508.2 266C489.3 286.7 470.7 326.3 451.8 322.8C433 319.3 414 272.7 395.2 270C376.3 267.3 357.7 308.7 338.8 319.5C320 330.3 301 310.7 282.2 285.5C263.3 260.3 244.7 229.7 225.8 204.3C207 179 188 159 169.2 154.5C150.3 150 131.7 161 112.8 178.2C94 195.3 75 218.7 56.2 225C37.3 231.3 18.7 220.7 9.3 215.3L0 210Z" fill="#79b7cc"></path><path d="M0 260L9.3 277.2C18.7 294.3 37.3 328.7 56.2 332.3C75 336 94 309 112.8 289.2C131.7 269.3 150.3 256.7 169.2 248.5C188 240.3 207 236.7 225.8 259.2C244.7 281.7 263.3 330.3 282.2 361.8C301 393.3 320 407.7 338.8 388.8C357.7 370 376.3 318 395.2 314.5C414 311 433 356 451.8 365C470.7 374 489.3 347 508.2 338C527 329 546 338 564.8 318.2C583.7 298.3 602.3 249.7 621.2 259.5C640 269.3 659 337.7 677.8 364.7C696.7 391.7 715.3 377.3 734.2 367.5C753 357.7 772 352.3 790.8 346C809.7 339.7 828.3 332.3 847.2 350.3C866 368.3 885 411.7 903.8 396.3C922.7 381 941.3 307 950.7 270L960 233L960 226L950.7 262C941.3 298 922.7 370 903.8 377.2C885 384.3 866 326.7 847.2 308.7C828.3 290.7 809.7 312.3 790.8 325.8C772 339.3 753 344.7 734.2 354.5C715.3 364.3 696.7 378.7 677.8 352.5C659 326.3 640 259.7 621.2 248C602.3 236.3 583.7 279.7 564.8 296.8C546 314 527 305 508.2 315.8C489.3 326.7 470.7 357.3 451.8 350.2C433 343 414 298 395.2 298.8C376.3 299.7 357.7 346.3 338.8 362.5C320 378.7 301 364.3 282.2 333.8C263.3 303.3 244.7 256.7 225.8 229.7C207 202.7 188 195.3 169.2 198.8C150.3 202.3 131.7 216.7 112.8 241C94 265.3 75 299.7 56.2 299.7C37.3 299.7 18.7 265.3 9.3 248.2L0 231Z" fill="#7ebbcf"></path><path d="M0 298L9.3 316C18.7 334 37.3 370 56.2 371.8C75 373.7 94 341.3 112.8 322.5C131.7 303.7 150.3 298.3 169.2 292.8C188 287.3 207 281.7 225.8 301.3C244.7 321 263.3 366 282.2 391.3C301 416.7 320 422.3 338.8 401.7C357.7 381 376.3 334 395.2 337.5C414 341 433 395 451.8 403.2C470.7 411.3 489.3 373.7 508.2 365.7C527 357.7 546 379.3 564.8 362.2C583.7 345 602.3 289 621.2 297C640 305 659 377 677.8 404C696.7 431 715.3 413 734.2 401.3C753 389.7 772 384.3 790.8 373.5C809.7 362.7 828.3 346.3 847.2 360.7C866 375 885 420 903.8 410.2C922.7 400.3 941.3 335.7 950.7 303.3L960 271L960 231L950.7 268C941.3 305 922.7 379 903.8 394.3C885 409.7 866 366.3 847.2 348.3C828.3 330.3 809.7 337.7 790.8 344C772 350.3 753 355.7 734.2 365.5C715.3 375.3 696.7 389.7 677.8 362.7C659 335.7 640 267.3 621.2 257.5C602.3 247.7 583.7 296.3 564.8 316.2C546 336 527 327 508.2 336C489.3 345 470.7 372 451.8 363C433 354 414 309 395.2 312.5C376.3 316 357.7 368 338.8 386.8C320 405.7 301 391.3 282.2 359.8C263.3 328.3 244.7 279.7 225.8 257.2C207 234.7 188 238.3 169.2 246.5C150.3 254.7 131.7 267.3 112.8 287.2C94 307 75 334 56.2 330.3C37.3 326.7 18.7 292.3 9.3 275.2L0 258Z" fill="#95cddf"></path><path d="M0 438L9.3 438C18.7 438 37.3 438 56.2 433.5C75 429 94 420 112.8 416.5C131.7 413 150.3 415 169.2 413.3C188 411.7 207 406.3 225.8 415.3C244.7 424.3 263.3 447.7 282.2 460.2C301 472.7 320 474.3 338.8 455.3C357.7 436.3 376.3 396.7 395.2 398.5C414 400.3 433 443.7 451.8 456.3C470.7 469 489.3 451 508.2 453.7C527 456.3 546 479.7 564.8 459C583.7 438.3 602.3 373.7 621.2 368.3C640 363 659 417 677.8 439.5C696.7 462 715.3 453 734.2 453.8C753 454.7 772 465.3 790.8 451.8C809.7 438.3 828.3 400.7 847.2 401.7C866 402.7 885 442.3 903.8 449.5C922.7 456.7 941.3 431.3 950.7 418.7L960 406L960 269L950.7 301.3C941.3 333.7 922.7 398.3 903.8 408.2C885 418 866 373 847.2 358.7C828.3 344.3 809.7 360.7 790.8 371.5C772 382.3 753 387.7 734.2 399.3C715.3 411 696.7 429 677.8 402C659 375 640 303 621.2 295C602.3 287 583.7 343 564.8 360.2C546 377.3 527 355.7 508.2 363.7C489.3 371.7 470.7 409.3 451.8 401.2C433 393 414 339 395.2 335.5C376.3 332 357.7 379 338.8 399.7C320 420.3 301 414.7 282.2 389.3C263.3 364 244.7 319 225.8 299.3C207 279.7 188 285.3 169.2 290.8C150.3 296.3 131.7 301.7 112.8 320.5C94 339.3 75 371.7 56.2 369.8C37.3 368 18.7 332 9.3 314L0 296Z" fill="#abd9ea"></path><path d="M0 541L9.3 541C18.7 541 37.3 541 56.2 541C75 541 94 541 112.8 541C131.7 541 150.3 541 169.2 541C188 541 207 541 225.8 541C244.7 541 263.3 541 282.2 541C301 541 320 541 338.8 541C357.7 541 376.3 541 395.2 541C414 541 433 541 451.8 541C470.7 541 489.3 541 508.2 541C527 541 546 541 564.8 541C583.7 541 602.3 541 621.2 541C640 541 659 541 677.8 541C696.7 541 715.3 541 734.2 541C753 541 772 541 790.8 541C809.7 541 828.3 541 847.2 541C866 541 885 541 903.8 541C922.7 541 941.3 541 950.7 541L960 541L960 404L950.7 416.7C941.3 429.3 922.7 454.7 903.8 447.5C885 440.3 866 400.7 847.2 399.7C828.3 398.7 809.7 436.3 790.8 449.8C772 463.3 753 452.7 734.2 451.8C715.3 451 696.7 460 677.8 437.5C659 415 640 361 621.2 366.3C602.3 371.7 583.7 436.3 564.8 457C546 477.7 527 454.3 508.2 451.7C489.3 449 470.7 467 451.8 454.3C433 441.7 414 398.3 395.2 396.5C376.3 394.7 357.7 434.3 338.8 453.3C320 472.3 301 470.7 282.2 458.2C263.3 445.7 244.7 422.3 225.8 413.3C207 404.3 188 409.7 169.2 411.3C150.3 413 131.7 411 112.8 414.5C94 418 75 427 56.2 431.5C37.3 436 18.7 436 9.3 436L0 436Z" fill="#bfe1ef"></path></svg>